<?xml version="1.0" encoding="UTF-8" standalone="no"?>
<svg
   xmlns:dc="http://purl.org/dc/elements/1.1/"
   xmlns:cc="http://creativecommons.org/ns#"
   xmlns:rdf="http://www.w3.org/1999/02/22-rdf-syntax-ns#"
   xmlns:svg="http://www.w3.org/2000/svg"
   xmlns="http://www.w3.org/2000/svg"
   xmlns:sodipodi="http://sodipodi.sourceforge.net/DTD/sodipodi-0.dtd"
   xmlns:inkscape="http://www.inkscape.org/namespaces/inkscape"
   width="36"
   height="36"
   viewBox="0 0 35.999999 36"
   id="svg2"
   version="1.1"
   inkscape:version="1.0 (6e3e5246a0, 2020-05-07)"
   sodipodi:docname="button-switch-view-icon-grey.svg">
  <defs
     id="defs4" />
  <sodipodi:namedview
     id="base"
     pagecolor="#ffffff"
     bordercolor="#666666"
     borderopacity="1.0"
     inkscape:pageopacity="0.0"
     inkscape:pageshadow="2"
     inkscape:zoom="4.357599"
     inkscape:cx="-42.204512"
     inkscape:cy="27.385295"
     inkscape:document-units="px"
     inkscape:current-layer="layer1"
     showgrid="false"
     fit-margin-top="0"
     fit-margin-left="0"
     fit-margin-right="0"
     fit-margin-bottom="0"
     inkscape:window-width="1860"
     inkscape:window-height="1016"
     inkscape:window-x="60"
     inkscape:window-y="27"
     inkscape:window-maximized="1"
     units="px"
     inkscape:document-rotation="0" />
  <metadata
     id="metadata7">
    <rdf:RDF>
      <cc:Work
         rdf:about="">
        <dc:format>image/svg+xml</dc:format>
        <dc:type
           rdf:resource="http://purl.org/dc/dcmitype/StillImage" />
        <dc:title />
      </cc:Work>
    </rdf:RDF>
  </metadata>
  <g
     inkscape:label="Layer 1"
     inkscape:groupmode="layer"
     id="layer1"
     transform="translate(-234.28572,-393.50507)">
    <g
       id="g162"
       transform="matrix(0.12755102,0,0,-0.12755102,-710.21428,-139.72965)">
      <path
         id="path160"
         d="m 640,96 q 0,-4 1,-20 1,-16 0.5,-26.5 Q 641,39 638.5,26 636,13 628.5,6.5 621,0 608,0 H 288 Q 169,0 84.5,84.5 0,169 0,288 V 992 Q 0,1111 84.5,1195.5 169,1280 288,1280 h 320 q 13,0 22.5,-9.5 9.5,-9.5 9.5,-22.5 0,-4 1,-20 1,-16 0.5,-26.5 -0.5,-10.5 -3,-23.5 -2.5,-13 -10,-19.5 Q 621,1152 608,1152 H 288 q -66,0 -113,-47 -47,-47 -47,-113 V 288 q 0,-66 47,-113 47,-47 113,-47 h 288 11 13 q 0,0 11.5,-1 11.5,-1 11.5,-3 0,-2 8,-5.5 8,-3.5 7,-9 -1,-5.5 2,-13.5 z m 928,544 q 0,-26 -19,-45 L 1005,51 Q 986,32 960,32 934,32 915,51 896,70 896,96 V 384 H 448 q -26,0 -45,19 -19,19 -19,45 v 384 q 0,26 19,45 19,19 45,19 h 448 v 288 q 0,26 19,45 19,19 45,19 26,0 45,-19 l 544,-544 q 19,-19 19,-45 z"
         fill="currentColor" />
    </g>
    <path
       id="path1521"
       style="font-variation-settings:normal;opacity:1;vector-effect:none;fill:#808080;fill-opacity:0.941176;stroke:none;stroke-width:25;stroke-linecap:butt;stroke-linejoin:miter;stroke-miterlimit:4;stroke-dasharray:none;stroke-dashoffset:0;stroke-opacity:0.690751;stop-color:#000000;stop-opacity:1"
       inkscape:transform-center-x="231.90278"
       inkscape:transform-center-y="-298.35337"
       d="m 243.50258,395.97093 c -0.21639,0 -0.43278,0.0826 -0.59765,0.24804 l -4.47657,4.45117 -1.5957,-1.55469 c -0.32974,-0.33087 -0.86557,-0.33087 -1.19531,0 l -1.10352,1.10548 c -0.33089,0.32974 -0.33089,0.86559 0,1.19531 l 3.3457,3.33202 c 0.34688,0.32973 0.89141,0.32973 1.23829,0 l 1.0957,-1.09766 5.07617,-5.07617 c 0.32908,-0.32952 0.33162,-0.86248 0.006,-1.19531 l -1.19531,-1.16016 c -0.16487,-0.16545 -0.38126,-0.24805 -0.59766,-0.24805 z m 5.4082,2.25196 c -0.62132,0 -1.125,0.50367 -1.125,1.125 v 2.25 c 0,0.62133 0.50367,1.125 1.125,1.125 h 20.25 c 0.62132,0 1.125,-0.50367 1.125,-1.125 v -2.25 c 0,-0.62133 -0.50368,-1.125 -1.125,-1.125 z m -5.4082,8.94139 c -0.21639,0 -0.43278,0.0826 -0.59765,0.24804 l -4.47657,4.48048 -1.5957,-1.55468 c -0.32974,-0.33088 -0.86557,-0.33088 -1.19531,0 l -1.10352,1.10352 c -0.33089,0.32974 -0.33089,0.86556 0,1.19531 l 3.33789,3.33983 c 0.34664,0.32964 0.88969,0.32964 1.23633,0 l 1.10352,-1.10352 5.07812,-5.07812 c 0.32788,-0.32727 0.33041,-0.85692 0.006,-1.1875 l -1.19531,-1.19532 c -0.16487,-0.16545 -0.38126,-0.24804 -0.59766,-0.24804 z m 5.4082,2.30861 c -0.62132,0 -1.125,0.50367 -1.125,1.125 v 2.25 c 0,0.62133 0.50368,1.125 1.125,1.125 h 20.25 c 0.62132,0 1.125,-0.50367 1.125,-1.125 v -2.25 c 0,-0.62133 -0.50368,-1.125 -1.125,-1.125 z m -12.57031,9.77539 c -0.0829,0 -0.15756,0.019 -0.22656,0.0605 -0.0691,0.0415 -0.14562,0.0913 -0.22852,0.14648 l -0.87109,0.86915 c -0.0553,0.0553 -0.10303,0.12412 -0.14453,0.20702 -0.0414,0.0829 -0.0625,0.1671 -0.0625,0.25 0,0.0829 0.021,0.16514 0.0625,0.24804 0.0415,0.0829 0.0893,0.15183 0.14453,0.20703 l 1.90625,1.90625 -1.90625,1.94922 c -0.0553,0.0553 -0.10303,0.12413 -0.14453,0.20703 -0.0414,0.0829 -0.0625,0.16514 -0.0625,0.24804 0,0.0553 0.021,0.12414 0.0625,0.20704 0.0415,0.0829 0.0893,0.15183 0.14453,0.20703 l 0.91211,0.91211 c 0.0552,0.0552 0.1184,0.0973 0.1875,0.125 0.0691,0.0277 0.14366,0.041 0.22656,0.041 0.0829,0 0.1671,-0.0133 0.25,-0.041 0.0829,-0.0276 0.15183,-0.0698 0.20703,-0.125 l 1.90625,-1.94727 1.94727,1.94727 c 0.0553,0.0552 0.12413,0.0973 0.20703,0.125 0.0829,0.0277 0.1671,0.041 0.25,0.041 0.0829,0 0.15756,-0.0133 0.22656,-0.041 0.0691,-0.0276 0.1323,-0.0698 0.1875,-0.125 l 0.91211,-0.91211 c 0.0552,-0.0553 0.0953,-0.12413 0.12305,-0.20703 0.0277,-0.0829 0.043,-0.16515 0.043,-0.24805 0,-0.0829 -0.0153,-0.15942 -0.043,-0.22852 -0.0276,-0.0691 -0.0678,-0.13034 -0.12305,-0.18554 l -1.94922,-1.94922 1.94922,-1.90625 c 0.0552,-0.0553 0.0953,-0.12413 0.12305,-0.20703 0.0277,-0.0829 0.043,-0.16515 0.043,-0.24804 0,-0.0829 -0.0153,-0.16711 -0.043,-0.25 -0.0276,-0.0829 -0.0678,-0.15184 -0.12305,-0.20702 l -0.91211,-0.86915 c -0.0553,-0.0553 -0.12413,-0.10499 -0.20703,-0.14648 -0.0829,-0.0414 -0.16515,-0.0605 -0.24805,-0.0605 -0.0553,0 -0.12608,0.019 -0.20898,0.0605 -0.0829,0.0415 -0.15183,0.0913 -0.20703,0.14648 l -1.94727,1.90625 -1.90625,-1.90625 c -0.0553,-0.0553 -0.12413,-0.10499 -0.20703,-0.14648 -0.0829,-0.0414 -0.1671,-0.0605 -0.25,-0.0605 z m 12.57031,1.47461 c -0.62133,0 -1.125,0.50367 -1.125,1.125 v 2.25 c 0,0.62133 0.50368,1.125 1.125,1.125 h 20.25 c 0.62132,0 1.125,-0.50367 1.125,-1.125 v -2.25 c 0,-0.62133 -0.50368,-1.125 -1.125,-1.125 z" />
  </g>
</svg>
