<?xml version="1.0" encoding="UTF-8" standalone="no"?>
<svg
   xmlns:dc="http://purl.org/dc/elements/1.1/"
   xmlns:cc="http://creativecommons.org/ns#"
   xmlns:rdf="http://www.w3.org/1999/02/22-rdf-syntax-ns#"
   xmlns:svg="http://www.w3.org/2000/svg"
   xmlns="http://www.w3.org/2000/svg"
   xmlns:sodipodi="http://sodipodi.sourceforge.net/DTD/sodipodi-0.dtd"
   xmlns:inkscape="http://www.inkscape.org/namespaces/inkscape"
   sodipodi:docname="button-toggle-action-icon-grey.svg"
   inkscape:version="1.0 (6e3e5246a0, 2020-05-07)"
   version="1.1"
   id="svg2"
   viewBox="0 0 35.999999 36"
   height="36"
   width="36">
  <defs
     id="defs4" />
  <sodipodi:namedview
     inkscape:document-rotation="0"
     units="px"
     inkscape:window-maximized="1"
     inkscape:window-y="27"
     inkscape:window-x="72"
     inkscape:window-height="1016"
     inkscape:window-width="1848"
     fit-margin-bottom="0"
     fit-margin-right="0"
     fit-margin-left="0"
     fit-margin-top="0"
     showgrid="false"
     inkscape:current-layer="layer1"
     inkscape:document-units="px"
     inkscape:cy="27.385295"
     inkscape:cx="-42.204512"
     inkscape:zoom="4"
     inkscape:pageshadow="2"
     inkscape:pageopacity="0.0"
     borderopacity="1.0"
     bordercolor="#666666"
     pagecolor="#ffffff"
     id="base" />
  <metadata
     id="metadata7">
    <rdf:RDF>
      <cc:Work
         rdf:about="">
        <dc:format>image/svg+xml</dc:format>
        <dc:type
           rdf:resource="http://purl.org/dc/dcmitype/StillImage" />
        <dc:title></dc:title>
      </cc:Work>
    </rdf:RDF>
  </metadata>
  <g
     transform="translate(-234.28572,-393.50507)"
     id="layer1"
     inkscape:groupmode="layer"
     inkscape:label="Layer 1">
    <path
       inkscape:connector-curvature="0"
       id="polygon4292"
       d="m 264.58406,394.86529 c -1.56469,-0.14225 -4.03026,2.56058 -4.03026,2.56058 l 6.63809,7.82346 c 0,0 2.93972,-2.2285 3.08197,-3.79319 0.23707,-2.56041 -3.12939,-6.35378 -5.6898,-6.59085 z m -5.26287,3.41349 -21.09964,19.58274 0.0296,0.0445 -2.25869,5.73978 c 0.0122,0.0108 0.023,0.0222 0.0352,0.0334 l -1.74194,4.47108 4.64703,-0.9483 5.9741,-1.2326 c 0,0 -0.007,-0.034 -0.007,-0.0371 l 21.10705,-19.5457 -3.36627,-4.03026 -3.31905,-4.07751 z"
       style="color:#000000;clip-rule:nonzero;display:inline;overflow:visible;visibility:visible;opacity:1;isolation:isolate;mix-blend-mode:normal;color-interpolation:sRGB;color-interpolation-filters:linearRGB;solid-color:#000000;solid-opacity:1;fill:#808080;fill-opacity:0.94117647;fill-rule:nonzero;stroke:none;stroke-width:25;stroke-linecap:butt;stroke-linejoin:miter;stroke-miterlimit:4;stroke-dasharray:none;stroke-dashoffset:0;stroke-opacity:0.69075144;color-rendering:auto;image-rendering:auto;shape-rendering:auto;text-rendering:auto;enable-background:accumulate" />
    <g
       transform="matrix(0.12755102,0,0,-0.12755102,-710.21428,-139.72965)"
       id="g162">
      <path
         fill="currentColor"
         d="m 640,96 q 0,-4 1,-20 1,-16 0.5,-26.5 Q 641,39 638.5,26 636,13 628.5,6.5 621,0 608,0 H 288 Q 169,0 84.5,84.5 0,169 0,288 V 992 Q 0,1111 84.5,1195.5 169,1280 288,1280 h 320 q 13,0 22.5,-9.5 9.5,-9.5 9.5,-22.5 0,-4 1,-20 1,-16 0.5,-26.5 -0.5,-10.5 -3,-23.5 -2.5,-13 -10,-19.5 Q 621,1152 608,1152 H 288 q -66,0 -113,-47 -47,-47 -47,-113 V 288 q 0,-66 47,-113 47,-47 113,-47 h 288 11 13 q 0,0 11.5,-1 11.5,-1 11.5,-3 0,-2 8,-5.5 8,-3.5 7,-9 -1,-5.5 2,-13.5 z m 928,544 q 0,-26 -19,-45 L 1005,51 Q 986,32 960,32 934,32 915,51 896,70 896,96 V 384 H 448 q -26,0 -45,19 -19,19 -19,45 v 384 q 0,26 19,45 19,19 45,19 h 448 v 288 q 0,26 19,45 19,19 45,19 26,0 45,-19 l 544,-544 q 19,-19 19,-45 z"
         id="path160" />
    </g>
  </g>
</svg>
