<?xml version="1.0" encoding="UTF-8" standalone="no"?>
<svg
   xmlns:dc="http://purl.org/dc/elements/1.1/"
   xmlns:cc="http://creativecommons.org/ns#"
   xmlns:rdf="http://www.w3.org/1999/02/22-rdf-syntax-ns#"
   xmlns:svg="http://www.w3.org/2000/svg"
   xmlns="http://www.w3.org/2000/svg"
   xmlns:sodipodi="http://sodipodi.sourceforge.net/DTD/sodipodi-0.dtd"
   xmlns:inkscape="http://www.inkscape.org/namespaces/inkscape"
   viewBox="0 -64 36 36"
   id="svg4409"
   version="1.1"
   inkscape:version="0.91 r13725"
   sodipodi:docname="button-fullscreen-enter.svg"
   width="36"
   height="36">
  <metadata
     id="metadata4419">
    <rdf:RDF>
      <cc:Work
         rdf:about="">
        <dc:format>image/svg+xml</dc:format>
        <dc:type
           rdf:resource="http://purl.org/dc/dcmitype/StillImage" />
        <dc:title></dc:title>
      </cc:Work>
    </rdf:RDF>
  </metadata>
  <defs
     id="defs4417" />
  <sodipodi:namedview
     pagecolor="#ffffff"
     bordercolor="#666666"
     borderopacity="1"
     objecttolerance="10"
     gridtolerance="10"
     guidetolerance="10"
     inkscape:pageopacity="0"
     inkscape:pageshadow="2"
     inkscape:window-width="1871"
     inkscape:window-height="1056"
     id="namedview4415"
     showgrid="false"
     fit-margin-top="0"
     fit-margin-left="0"
     fit-margin-right="0"
     fit-margin-bottom="0"
     inkscape:zoom="3.6875"
     inkscape:cx="21.247656"
     inkscape:cy="-24.670386"
     inkscape:window-x="49"
     inkscape:window-y="24"
     inkscape:window-maximized="1"
     inkscape:current-layer="svg4409" />
  <path
     style="fill:#ffffff"
     inkscape:connector-curvature="0"
     id="path4413"
     d="m 36,-37.307321 q 0,-0.87805 -0.35122,-1.26439 -0.351219,-0.38634 -1.159024,-0.38634 l 0,0 0,0 q -0.772683,0 -1.141463,0.38634 -0.368781,0.38634 -0.368781,1.26439 l 0,1.51025 0,1.61561 0,1.1239 -8.323902,-8.3239 -1.26439,-1.26439 -1.44,-1.44 q -0.597074,-0.59708 -1.088781,-0.61464 -0.491707,-0.0176 -1.053659,0.54439 -0.280975,0.3161 -0.421463,0.56195 -0.140488,0.24586 -0.140488,0.49171 0,0.24585 0.158049,0.52683 0.158049,0.28098 0.509268,0.6322 l 3.108293,3.10829 2.932683,2.93268 2.142439,2.14244 2.282927,2.28293 q 0.105366,0.10536 0.210732,0.22829 0.105365,0.12293 0.210731,0.22829 l 0.01756,0.0176 0.01756,0.0176 -0.561951,0 -0.526829,0 -1.633171,0 -1.562927,0 q -0.807805,0 -1.194146,0.35122 -0.386342,0.35122 -0.386342,1.12391 0,0.38634 0.08781,0.68487 0.0878,0.29854 0.263415,0.47415 0.210732,0.17561 0.491707,0.26342 0.280973,0.08772 0.702436,0.08772 l 1.896586,0 2.001951,0 1.931707,0 2.037073,0 q 0.878049,0 1.24683,-0.35122 Q 36,-28.702441 36,-29.545371 l 0,-3.61756 0,-4.14439 0,0 z m -26.2009756,-18.89561 -4.1443903,-4.14439 -0.2107317,-0.21073 -0.2458536,-0.24585 q 0,-0.0351 -0.017561,-0.0527 l -0.017561,-0.0176 0.5619512,0 0.5619513,0 1.6682927,0 1.6331707,0 q 0.7375613,0 1.0887803,-0.38634 0.35122,-0.38634 0.35122,-1.1239 -0.03512,-0.91317 -0.474147,-1.19415 -0.439024,-0.28097 -0.9307314,-0.28097 -2.142439,-0.0351 -4.267317,-0.0351 -2.1248781,0 -3.9863415,0.0351 -0.63219512,0 -0.98341464,0.33366 -0.35121951,0.3337 -0.35121951,0.9659 Q 0,-60.277071 0,-58.204881 q 0,2.0722 0.03512195,4.0039 0,0.3161 0.08780488,0.54439 0.0878049,0.2283 0.26341463,0.40391 0.17560976,0.21073 0.47414634,0.29853 0.2985366,0.0878 0.72,0.0878 0.702439,-0.0351 1.0712195,-0.36878 0.3687805,-0.33366 0.3687805,-1.0361 0,-0.63219 0.017561,-1.28195 0.017561,-0.64976 0.017561,-1.28195 l 0,-0.77268 0,-0.77269 0,-0.15805 q 0,0 0.035122,-0.19317 0.1053659,0.10537 0.1756098,0.19317 0.070244,0.0878 0.1756097,0.15805 l 3.8634147,3.86342 q 1.5804878,1.61561 3.196097,3.23122 l 3.441952,3.44195 q 0.386341,0.35122 0.667317,0.52683 0.280975,0.17561 0.561951,0.17561 l 0.01756,0 0.01756,0 q 0.245854,0 0.509268,-0.15805 0.263415,-0.15805 0.579512,-0.47415 0.491708,-0.56195 0.456586,-1.0361 -0.03512,-0.47414 -0.667317,-1.10634 l -3.248781,-3.24878 -3.0380485,-3.03805 0,0 z" />
</svg>
