<?xml version="1.0" encoding="UTF-8" standalone="no"?>
<svg
   xmlns:dc="http://purl.org/dc/elements/1.1/"
   xmlns:cc="http://creativecommons.org/ns#"
   xmlns:rdf="http://www.w3.org/1999/02/22-rdf-syntax-ns#"
   xmlns:svg="http://www.w3.org/2000/svg"
   xmlns="http://www.w3.org/2000/svg"
   xmlns:sodipodi="http://sodipodi.sourceforge.net/DTD/sodipodi-0.dtd"
   xmlns:inkscape="http://www.inkscape.org/namespaces/inkscape"
   viewBox="0 -64 35.999996 36"
   id="svg5012"
   version="1.1"
   inkscape:version="0.91 r13725"
   sodipodi:docname="button-fullscreen-exit.svg"
   width="35.999996"
   height="36">
  <metadata
     id="metadata5022">
    <rdf:RDF>
      <cc:Work
         rdf:about="">
        <dc:format>image/svg+xml</dc:format>
        <dc:type
           rdf:resource="http://purl.org/dc/dcmitype/StillImage" />
        <dc:title></dc:title>
      </cc:Work>
    </rdf:RDF>
  </metadata>
  <defs
     id="defs5020" />
  <sodipodi:namedview
     pagecolor="#ffffff"
     bordercolor="#666666"
     borderopacity="1"
     objecttolerance="10"
     gridtolerance="10"
     guidetolerance="10"
     inkscape:pageopacity="0"
     inkscape:pageshadow="2"
     inkscape:window-width="1871"
     inkscape:window-height="1056"
     id="namedview5018"
     showgrid="false"
     fit-margin-top="0"
     fit-margin-left="0"
     fit-margin-right="0"
     fit-margin-bottom="0"
     inkscape:zoom="5.2149125"
     inkscape:cx="93.643063"
     inkscape:cy="68.347327"
     inkscape:window-x="49"
     inkscape:window-y="24"
     inkscape:window-maximized="1"
     inkscape:current-layer="g5014" />
  <g
     transform="matrix(0.03513411,0,0,-0.03513411,-0.01246694,-30.248583)"
     id="g5014">
    <path
       d="m 548,146 q 0,-25 10,-35.5 10,-10.5 33,-10.5 l 0,0 0,0 q 22,0 32.5,11 10.5,11 10.5,35 l 0,44 0,45 0,32 237,-237 q 19,-18 36,-35 17,-17 41,-42 17,-17 31,-17 14,0 30,16 8,8 12,15 4,7 4,14 0,8 -4.5,16 Q 1016,5 1006,14 959,62 917.5,103.5 876,145 834,186 l -61,61 q 0,0 -65,66 l -6,6 q 0,0 -6,7 l -0.5,0 -0.5,0 16,0 15,0 46.5,0 44.5,0 q 23,0 34,10.5 11,10.5 11,32.5 0,11 -2.5,19 -2.5,8 -7.5,13 -6,6 -14,8.5 -8,2.5 -20,2.5 l -54,0 -57,0 -55,0 -58,0 Q 569,412 558.5,401.5 548,391 548,367 l 0,-102 0,-119 0,0 z m -350,556 118,-118 6,-6 7,-7 q 0,-1 0.5,-1 0.5,0 0.5,-1 l -16,0 -16,0 -47.5,0 -46.5,0 q -21,0 -31,-11 -10,-11 -10,-32 1,-26 13.5,-34 12.5,-8 26.5,-8 61,-1 121.5,-1 60.5,0 113.5,1 18,0 28.5,10 10.5,10 10.5,28 l 0,124 0,114 q 0,8 -3,15 -3,7 -8,12 -5,5 -13.5,8 -8.5,3 -19.5,3 -21,-1 -31.5,-11 Q 391,777 391,758 l 0,-37 0,-36 0,-22 0,-22 q 0,-2 -0.5,-4.5 -0.5,-2.5 -0.5,-5.5 -3,3 -5.5,5 -2.5,2 -5.5,5 L 270,750 Q 224,797 178,842.5 132,888 80,940 70,951 61.5,955.5 53,960 45,960 l -0.5,0 -0.5,0 Q 37,960 29.5,955.5 22,951 13,942 -1,926 0.5,912.5 2,899 19,881 l 92.5,-92.5 86.5,-86.5 0,0 z"
       id="path5016"
       inkscape:connector-curvature="0"
       style="fill:#ffffff;fill-opacity:1" />
  </g>
</svg>
